<?xml version="1.0" encoding="UTF-8" standalone="no"?>
<!-- Created with Inkscape (http://www.inkscape.org/) -->

<svg
   version="1.1"
   id="svg2"
   width="1920"
   height="787.34131"
   viewBox="0 0 1920 787.34132"
   sodipodi:docname="Landing page MOBILE.ai"
   xmlns:inkscape="http://www.inkscape.org/namespaces/inkscape"
   xmlns:sodipodi="http://sodipodi.sourceforge.net/DTD/sodipodi-0.dtd"
   xmlns="http://www.w3.org/2000/svg"
   xmlns:svg="http://www.w3.org/2000/svg">
  <defs
     id="defs6">
    <clipPath
       clipPathUnits="userSpaceOnUse"
       id="clipPath22">
      <path
         d="m 0,2059 h 1440 v 590.506 H 0 Z"
         id="path20" />
    </clipPath>
  </defs>
  <sodipodi:namedview
     id="namedview4"
     pagecolor="#ffffff"
     bordercolor="#000000"
     borderopacity="0.25"
     inkscape:showpageshadow="2"
     inkscape:pageopacity="0.0"
     inkscape:pagecheckerboard="0"
     inkscape:deskcolor="#d1d1d1"
     showgrid="false" />
  <g
     id="g10"
     inkscape:groupmode="layer"
     inkscape:label="Page 1"
     transform="matrix(1.3333333,0,0,-1.3333333,-4.0895066,3532.6746)">
    <g
       id="g16"
       transform="translate(134.9537,-125.75231)">
      <g
         id="g18"
         clip-path="url(#clipPath22)"
         transform="translate(-131.88657,125.75231)">
        <g
           id="g24"
           transform="translate(-394.9834,1948.3801)">
          <path
             d="m 0,0 c -0.013,-0.002 -0.026,-0.003 -0.037,-0.006 z m -278.273,81.961 250.774,-275.486 34.981,-187.377 -134.486,-347.408 275.483,250.774 187.378,34.981 347.409,-134.488 -238.018,261.471 c -2.568,2.821 -4.787,5.257 -25.796,101.359 -10.577,48.394 -7.867,98.788 7.834,145.739 25.724,76.92 71.225,212.201 88.934,259.992 L 361.759,71.734 C 328.759,46.141 292.032,26.188 252.598,12.429 L 119.7,-33.941 c -7.772,-4.548 -24.649,-1.728 -73.507,9.176 -15.705,3.505 -35.263,7.856 -39.483,7.628 l -1.484,-0.275 -4.633,1.031 c -20.981,0.465 -112.723,34.025 -113.654,34.385 z m 110.59,-869.622 158.076,408.342 -33.259,178.153 -294.758,323.803 230.522,-89.238 C -89.955,26.759 -11.536,0.04 0.081,0.04 c 0.046,0 0.091,0 0.137,0.002 l 1.405,0.261 4.314,-0.961 c 6.236,0.236 18.122,-2.253 43.851,-7.996 18.842,-4.204 53.399,-11.941 61.619,-10.83 l 0.239,0.218 135.513,47.281 c 37.744,13.171 72.898,32.268 104.482,56.764 l 155.705,120.749 c 5.734,4.446 13.514,4.546 19.361,0.25 5.842,-4.295 8.065,-11.746 5.534,-18.541 C 515.027,141.054 468.904,3.922 442.942,-73.71 c -14.757,-44.127 -17.304,-91.493 -7.362,-136.977 12.368,-56.578 19.933,-88.337 22.502,-94.459 L 742.617,-617.72 334.274,-459.644 156.121,-492.903 Z"
             style="fill:#1b506a;fill-opacity:1;fill-rule:nonzero;stroke:none"
             id="path26" />
        </g>
        <g
           id="g28"
           transform="translate(-482.5914,2026.9861)">
          <path
             d="M 0,0 -0.09,-0.018 C -0.058,-0.011 -0.029,-0.005 0,0 m -391.5,140.999 358.094,-393.38 48.405,-259.287 -0.846,-2.187 -191.197,-493.898 393.381,358.096 259.289,48.406 2.188,-0.846 493.894,-191.195 -346.197,380.309 c -2.415,2.652 -5.152,5.658 -39.99,174.144 -10.108,48.885 -6.706,99.6 9.839,146.662 41.966,119.38 121.536,341.029 146.622,407.549 L 475.953,94.611 l -5.271,6.352 5.271,-6.352 C 435.572,61.102 389.587,36.561 339.273,21.671 L 151.45,-33.912 c -6.832,-3.819 -22.061,-1.001 -96.582,19.708 C 32.65,-8.03 5.086,-0.371 -0.485,-0.09 l -1.379,-0.258 -5.674,1.552 c -4.933,0.073 -18.72,3.028 -76.557,23.002 -35.884,12.394 -70.296,25.005 -74.589,26.665 z m 173.779,-1208.103 215.632,557.019 -46.683,250.063 -402.082,441.701 298.128,-115.412 C -133.662,58.888 -21.257,18.725 -7.678,17.754 l 1.312,0.245 5.853,-1.602 C 6.026,16.255 20.243,12.55 59.288,1.701 c 27.951,-7.767 74.007,-20.566 84.634,-20.566 0.069,0 0.139,0 0.206,0.002 l 190.46,56.364 c 48.158,14.252 92.174,37.741 130.822,69.813 l 267.336,221.848 c 5.698,4.727 13.568,5.014 19.592,0.716 6.018,-4.295 8.304,-11.827 5.689,-18.744 -24.35,-64.395 -104.81,-288.508 -147.094,-408.785 -15.549,-44.232 -18.747,-91.896 -9.246,-137.845 28.386,-137.283 35.246,-162.678 36.856,-167.281 l 392.519,-431.195 -557.019,215.633 -250.064,-46.685 z"
             style="fill:#1b506a;fill-opacity:1;fill-rule:nonzero;stroke:none"
             id="path30" />
        </g>
        <g
           id="g32"
           transform="translate(-673.1207,2218.3005)">
          <path
             d="m 0,0 z m -602.642,224.975 572.734,-629.171 75.256,-403.107 -0.846,-2.187 -306.305,-791.247 629.17,572.736 403.107,75.254 2.188,-0.846 791.248,-306.305 -562.559,617.99 c -2.869,3.15 -4.178,4.59 -58.888,282.672 l -7.079,35.963 c -9.771,49.6 -5.666,100.879 11.87,148.297 66.185,178.955 223.666,604.399 262.595,706.292 L 706.961,93.295 l -5.422,6.225 5.422,-6.225 C 660.901,53.178 605.207,24.269 545.896,9.692 L 230.032,-67.94 c -3.669,-1.582 -8.908,-0.742 -19.242,1.873 -7.794,1.973 -18.515,5.065 -32.775,9.452 -26.108,8.03 -58.803,18.776 -90.423,29.169 C 50.364,-15.21 8.301,-1.386 0.559,-0.079 l -1.08,-0.202 -8.808,2.855 c -6.362,0.797 -26.527,6.778 -113.37,38.444 -54.593,19.908 -108.583,40.198 -111.92,41.489 z m 300.16,-1885.064 330.742,854.369 -73.534,393.883 -616.721,677.492 433.336,-167.752 c 15.78,-6.11 202.027,-75.567 220.379,-78.848 l 1.042,0.195 8.847,-2.868 c 6.64,-0.722 24.122,-6.119 91.138,-28.145 48.059,-15.798 120.195,-39.507 132.146,-40.442 l 0.129,0.033 316.934,77.895 c 56.768,13.951 110.077,41.622 154.162,80.021 l 504.246,439.205 c 5.66,4.93 13.598,5.356 19.753,1.056 6.148,-4.294 8.479,-11.887 5.798,-18.892 -37.766,-98.699 -196.629,-527.875 -263.178,-707.815 -16.482,-44.567 -20.339,-92.763 -11.156,-139.379 l 7.08,-35.968 c 19.155,-97.362 50.917,-258.811 55.951,-275.904 l 608.652,-668.624 -854.373,330.742 -393.883,-73.533 z"
             style="fill:#1b506a;fill-opacity:1;fill-rule:nonzero;stroke:none"
             id="path34" />
        </g>
        <g
           id="g36"
           transform="translate(-1476.6012,2580.9231)">
          <path
             d="m 0,0 680.058,-747.068 88.68,-475.017 -0.846,-2.187 -363.861,-939.924 747.067,680.056 475.016,88.68 2.188,-0.846 939.924,-363.861 -670.739,736.832 c -2.281,2.506 -3.322,3.649 -32.411,150.608 -15.818,79.92 -34.375,175.316 -47.157,241.271 -9.594,49.507 -5.372,100.669 12.211,147.955 74.204,199.538 277.616,740.333 322.053,856.231 l -623.738,-549.519 c -47.711,-42.034 -105.671,-71.845 -167.613,-86.211 l -382.547,-88.723 c -6.064,-3.157 -23.282,1.726 -166.089,50.638 -44.199,15.137 -94.118,32.233 -102.848,34.055 l -0.941,-0.176 -10.408,3.526 c -7.148,1.19 -30.635,8.722 -131.754,46.129 -62.623,23.167 -126.902,47.473 -130.614,48.909 z M 363.353,-2223.549 751.65,-1220.502 664.692,-754.71 -59.353,40.678 441.59,-153.246 c 19.44,-7.522 237.673,-89.66 257.996,-94.021 l 0.912,0.171 10.221,-3.463 c 6.495,-0.895 25.345,-7.003 106.829,-34.91 60.515,-20.727 142.964,-48.966 155.656,-50.486 l 383.898,89.038 c 59.288,13.749 114.763,42.282 160.429,82.515 l 5.457,-6.194 -5.457,6.194 625.107,550.726 c 5.652,4.981 13.603,5.436 19.788,1.138 6.181,-4.297 8.522,-11.907 5.825,-18.936 -43.035,-112.138 -248.081,-657.268 -322.647,-857.781 -16.528,-44.444 -20.495,-92.529 -11.479,-139.061 43.856,-226.299 72.287,-369.037 76.707,-385.157 l 716.747,-787.374 -1003.048,388.299 -465.792,-86.958 z"
             style="fill:#c0c1c0;fill-opacity:1;fill-rule:nonzero;stroke:none"
             id="path38" />
        </g>
        <g
           id="g40"
           transform="translate(-1677.4351,2718.5674)">
          <path
             d="m 0,0 787.377,-864.963 102.104,-546.926 -0.846,-2.187 -421.418,-1088.602 864.965,787.379 546.927,102.104 2.188,-0.846 1088.6,-421.418 -778.92,855.673 c -2.083,2.287 -2.404,2.638 -13.26,56.573 -5.895,29.289 -14.138,71.055 -24.497,124.14 -18.501,94.801 -40.053,206.698 -54.875,283.874 -9.532,49.644 -5.186,100.9 12.572,148.23 81.62,217.563 329.484,872.145 381.005,1006.205 L 1746.604,-222.66 c -48.917,-43.443 -108.537,-73.892 -172.417,-88.055 l -451.298,-100.04 c -3.73,-1.528 -9.239,-0.142 -23.416,4.198 -10.167,3.113 -24.363,7.772 -43.399,14.243 -34.979,11.891 -79.16,27.473 -121.886,42.542 -53.681,18.932 -109.13,38.488 -118.672,40.776 l -0.81,-0.151 -12.099,4.226 c -8.067,1.651 -35.199,10.838 -150.055,53.777 -74.927,28.012 -146.973,55.427 -149.317,56.333 z M 426.539,-2562.029 872.393,-1410.306 772.011,-872.604 -59.353,40.68 509.193,-179.415 c 22.513,-8.714 273.495,-103.784 295.592,-109.202 l 0.79,0.146 11.576,-4.045 c 6.495,-1.086 27.246,-8.084 122.528,-41.688 70.083,-24.717 165.554,-58.389 179.088,-60.556 l 451.848,100.163 c 61.142,13.555 118.207,42.698 165.027,84.279 l 746.698,663.126 c 5.647,5.013 13.611,5.496 19.817,1.195 6.202,-4.295 8.549,-11.913 5.841,-18.956 -49.993,-129.995 -299.654,-789.314 -381.625,-1007.813 -16.69,-44.486 -20.776,-92.661 -11.816,-139.318 51.89,-270.185 85.183,-439.868 89.837,-457.919 l 824.854,-906.134 -1151.722,445.854 -537.703,-100.382 z"
             style="fill:#1b506a;fill-opacity:1;fill-rule:nonzero;stroke:none"
             id="path42" />
        </g>
        <g
           id="g44"
           transform="translate(-1878.2737,2856.2151)">
          <path
             d="m 0,0 894.701,-982.861 115.528,-618.837 -0.846,-2.187 -478.971,-1237.276 982.859,894.7 618.836,115.529 2.188,-0.846 1237.278,-478.971 -887.102,974.51 c -2.069,2.269 -2.191,2.405 -11.153,47.499 -4.98,25.052 -11.829,60.149 -20.941,107.296 -16.611,85.949 -37.528,195.371 -54.336,283.293 -7.093,37.102 -13.569,70.977 -18.881,98.702 -9.588,50.042 -5.081,101.663 13.032,149.286 L 2831.94,506.033 1964.336,-269.031 c -49.846,-44.529 -110.74,-75.451 -176.099,-89.423 l -520.333,-111.238 c -3.909,-1.478 -9.768,0.31 -25.35,5.359 -11.37,3.683 -27.319,9.127 -48.76,16.645 -39.435,13.825 -89.371,31.827 -137.665,49.236 -61.002,21.991 -124.003,44.704 -134.425,47.49 l -0.688,-0.129 -13.832,4.949 0.004,0.013 c -9.08,2.155 -40.067,13.053 -168.316,61.384 -83.524,31.474 -165.743,62.876 -168.032,63.762 z M 489.735,-2900.514 993.141,-1600.113 879.335,-990.502 -59.353,40.677 576.801,-205.588 c 13.966,-5.409 308.897,-117.79 333.17,-124.383 l 0.672,0.124 13.374,-4.785 c 7.511,-1.615 32.12,-10.224 137.711,-48.29 79.658,-28.717 188.141,-67.825 202.534,-70.668 l 520.525,111.28 c 62.557,13.372 120.841,42.969 168.552,85.59 l 5.498,-6.155 -5.498,6.155 918.103,820.178 -463.822,-1219.489 c -17.024,-44.76 -21.258,-93.278 -12.247,-140.311 5.314,-27.727 11.79,-61.605 18.883,-98.711 31.276,-163.61 78.138,-408.751 83.695,-431.472 l 932.974,-1024.902 -1300.401,503.407 -609.61,-113.808 z"
             style="fill:#1b506a;fill-opacity:1;fill-rule:nonzero;stroke:none"
             id="path46" />
        </g>
        <g
           id="g48"
           transform="translate(-2279.9446,3131.5054)">
          <path
             d="m 0,0 1109.341,-1218.65 142.379,-762.657 -0.846,-2.187 -594.082,-1534.63 1218.65,1109.341 762.655,142.379 2.188,-0.846 1534.629,-594.083 -1103.461,1212.193 c -2.128,2.336 -2.128,2.336 -17.922,84.198 -8.607,44.617 -20.762,108.182 -36.129,188.931 -28.026,147.268 -60.683,319.914 -77.655,409.718 -9.442,49.959 -4.846,101.467 13.294,148.957 104.212,272.843 484.829,1264.844 558.393,1456.561 l -1112.442,-1001.92 -5.524,6.132 5.524,-6.132 c -51.165,-46.082 -113.88,-77.661 -181.366,-91.321 L 1558.55,-587.428 c -3.547,-1.663 -8.828,0.191 -29.765,7.522 -13.777,4.823 -33.235,11.837 -59.484,21.442 -48.334,17.685 -109.777,40.524 -169.195,62.609 -75.693,28.135 -153.856,57.186 -165.99,60.97 l -0.465,-0.087 -16.48,6.098 v 0.002 c -5.712,1.496 -20.313,6.83 -65.442,23.774 -34.06,12.789 -81.237,30.671 -140.217,53.152 -100.661,38.368 -202.838,77.604 -205.466,78.621 z m 616.114,-3577.475 618.518,1597.751 -140.658,753.433 L -59.353,40.678 712.008,-257.93 c 17.374,-6.727 380.554,-146.035 408.297,-154.755 l 0.456,0.086 16.482,-6.099 -0.021,-0.055 c 8.949,-2.347 39.555,-13.649 168.634,-61.629 98.741,-36.701 233.066,-86.631 249.25,-90.901 l 659.244,133.446 c 64.596,13.076 124.622,43.3 173.595,87.407 v 0.001 l 1163.534,1047.939 -12.317,-32.1 c -4.545,-11.842 -455.757,-1187.702 -570.7,-1488.637 -17.048,-44.633 -21.368,-93.044 -12.494,-140 76.043,-402.364 123.85,-652.85 129.071,-676.316 l 1149.227,-1262.468 -1597.752,618.519 -753.431,-140.657 z"
             style="fill:#1b506a;fill-opacity:1;fill-rule:nonzero;stroke:none"
             id="path50" />
        </g>
        <g
           id="g52"
           transform="translate(-2480.78,3269.1506)">
          <path
             d="m 0,0 1216.662,-1336.545 155.803,-834.567 -0.847,-2.187 -651.638,-1683.305 1336.547,1216.661 834.567,155.803 2.188,-0.846 1683.303,-651.638 -1211.642,1331.035 c -1.792,1.965 -1.792,1.965 -6.944,28.396 -2.901,14.871 -7.124,36.818 -12.557,65.235 -9.529,49.838 -23.013,120.814 -40.077,210.956 -30.896,163.211 -66.618,352.75 -85.164,451.206 -9.41,49.964 -4.778,101.474 13.395,148.962 108.564,283.66 526.796,1372.282 528.184,1375.866 L 3851.106,705.78 2616.058,-409.832 c -51.651,-46.658 -115.041,-78.471 -183.316,-92.003 l -729.568,-144.6 c -3.003,-1.065 -6.479,0.108 -12.376,2.092 -4.306,1.449 -10.656,3.685 -18.873,6.642 -14.984,5.394 -36.199,13.193 -64.856,23.841 -52.785,19.613 -119.979,44.868 -184.961,69.292 -83.04,31.208 -168.781,63.434 -181.771,67.724 l -0.363,-0.068 -17.799,6.668 0.016,0.043 c -5.944,1.632 -21.555,7.474 -71.058,26.215 -37.17,14.072 -88.746,33.733 -153.294,58.44 -113.873,43.586 -223.636,85.839 -224.187,86.052 z m 679.304,-3915.957 676.073,1746.429 -154.082,825.34 L -59.354,40.678 779.613,-284.1 c 19.091,-7.391 416.34,-160.147 445.844,-169.946 l 0.357,0.068 17.801,-6.668 v -0.008 c 5.238,-1.426 18.075,-6.198 56.264,-20.44 33.77,-12.592 79.562,-29.801 128.041,-48.022 114.242,-42.939 255.646,-96.083 272.56,-101.026 l 729.057,144.499 c 65.35,12.953 126.023,43.404 175.46,88.06 l 5.533,-6.125 -5.533,6.125 1286.575,1162.159 -114.393,-295.504 c -1.61,-4.163 -419.995,-1093.183 -528.161,-1375.807 -17.082,-44.632 -21.434,-93.046 -12.59,-140.004 84.132,-446.667 136.77,-724.12 142.153,-749.305 l 1257.358,-1381.258 -1746.428,676.074 -825.341,-154.081 z"
             style="fill:#1b506a;fill-opacity:1;fill-rule:nonzero;stroke:none"
             id="path54" />
        </g>
        <g
           id="g56"
           transform="translate(-2681.6155,3406.7966)">
          <path
             d="m 0,0 1323.982,-1454.441 169.227,-906.478 -0.846,-2.187 -709.193,-1831.981 1454.443,1323.984 906.476,169.227 2.188,-0.847 1831.981,-709.192 -1319.825,1449.872 c -1.704,1.875 -1.704,1.875 -5.394,20.957 -2.107,10.893 -5.13,26.703 -8.893,46.482 -7.016,36.893 -16.828,88.773 -29.998,158.606 -24.012,127.324 -54.555,289.804 -79.096,420.36 -13.561,72.137 -25.579,136.075 -34.231,182.04 -9.437,50.132 -4.743,101.792 13.574,149.397 94.965,246.796 577.491,1500.79 578.301,1502.882 l 98.259,253.823 -1357.948,-1229.611 c -52.063,-47.143 -116.018,-79.153 -184.956,-92.57 l -799.567,-155.629 c -2.927,-1.142 -6.284,0.043 -13.106,2.442 -4.611,1.624 -11.446,4.103 -20.314,7.367 -16.202,5.968 -39.186,14.555 -70.265,26.252 -57.259,21.552 -130.224,49.23 -200.787,75.998 -90.334,34.266 -183.594,69.642 -197.446,74.445 l -0.264,-0.049 -19.118,7.236 0.034,0.093 c -6.182,1.77 -22.834,8.117 -76.68,28.644 -40.276,15.354 -96.253,36.795 -166.373,63.729 -121.62,46.716 -242.242,93.225 -242.905,93.482 z m 742.493,-4254.44 12.641,32.658 720.987,1862.447 -167.505,897.252 L -59.354,40.678 847.217,-310.271 c 24.362,-9.424 452.089,-174.26 483.382,-185.134 l 0.262,0.049 19.123,-7.237 -0.032,-0.083 c 5.492,-1.575 19.316,-6.791 60.784,-22.436 36.653,-13.829 86.441,-32.714 139.153,-52.709 124.284,-47.146 278.023,-105.465 295.937,-111.184 l 799.071,155.533 c 65.982,12.842 127.198,43.48 177.03,88.601 l 5.541,-6.118 -5.541,6.118 1409.557,1276.344 -123.393,-318.752 c -1.169,-3.022 -483.396,-1256.243 -578.289,-1502.851 -17.216,-44.743 -21.628,-93.297 -12.759,-140.414 8.653,-45.966 20.673,-109.907 34.233,-182.044 45.932,-244.349 114.677,-610.055 120.832,-639.955 l 1365.502,-1500.048 -1895.104,733.626 -897.252,-167.505 z"
             style="fill:#1b506a;fill-opacity:1;fill-rule:nonzero;stroke:none"
             id="path58" />
        </g>
        <g
           id="g60"
           transform="translate(-2882.4509,3544.4417)">
          <path
             d="m 0,0 1431.302,-1572.336 182.652,-978.387 -0.846,-2.188 -766.747,-1980.657 1572.337,1431.303 978.386,182.653 2.187,-0.846 1980.659,-766.748 -1428.006,1568.713 c -1.624,1.787 -1.624,1.787 -3.539,11.697 -0.967,5.007 -2.373,12.358 -4.164,21.783 -3.582,18.831 -8.707,45.945 -14.973,79.17 -12.529,66.443 -29.614,157.328 -48.008,255.283 -36.787,195.904 -78.808,420.086 -100.072,533.556 -9.384,50.088 -4.663,101.698 13.653,149.25 122.012,316.76 626.88,1625.146 628.792,1630.085 l 107.197,276.91 -1480.947,-1343.729 -5.545,6.113 5.545,-6.113 c -52.407,-47.555 -116.848,-79.729 -186.355,-93.047 l -869.719,-166.641 c -2.819,-1.227 -6.013,-0.06 -13.811,2.786 -5.073,1.854 -12.448,4.599 -21.747,8.089 -17.407,6.536 -42.143,15.905 -75.624,28.644 -61.695,23.474 -140.399,53.564 -216.513,82.662 -102.089,39.031 -198.814,76.009 -213.289,81.238 l -0.172,-0.032 -20.437,7.801 0.024,0.064 c -3.195,0.974 -9.327,3.303 -22.904,8.461 -14.388,5.466 -34.852,13.292 -59.371,22.693 -43.391,16.639 -103.767,39.861 -179.454,69.019 -130.851,50.412 -261.004,100.672 -261.631,100.915 z m 805.684,-4592.919 791.182,2043.779 -180.931,969.162 L -59.353,40.678 914.82,-336.441 c 4.911,-1.902 487.017,-188.051 520.92,-200.327 l 0.171,0.032 20.435,-7.801 -0.018,-0.044 c 2.75,-0.843 7.711,-2.715 17.939,-6.574 11.343,-4.279 27.59,-10.452 47.383,-17.995 39.568,-15.075 93.312,-35.623 150.377,-57.44 134.225,-51.314 300.129,-114.742 319.13,-121.281 l 869.246,166.549 c 66.526,12.747 128.205,43.543 178.369,89.059 L 4571.396,898.357 4439.009,556.372 c -2.436,-6.298 -509.229,-1319.679 -628.782,-1630.058 -17.216,-44.694 -21.653,-93.2 -12.831,-140.277 37.961,-202.593 160.044,-853.896 168.242,-895.074 l 1473.643,-1618.845 -2043.78,791.182 -969.161,-180.931 z"
             style="fill:#1b506a;fill-opacity:1;fill-rule:nonzero;stroke:none"
             id="path62" />
        </g>
        <g
           id="g64"
           transform="translate(-30.1699,1662.7111)">
          <path
             d="M 0,0 0.031,-0.034 C 0.019,-0.023 0.01,-0.011 0,0 m -442.249,229.984 143.453,-157.589 21.555,-115.469 -76.933,-198.731 157.59,143.454 115.468,21.555 198.732,-76.931 -129.837,142.629 c -1.754,1.928 -3.392,5.006 -6.586,15.038 -16.377,51.452 -16.993,106.384 -1.776,158.856 11.57,39.903 26.993,91.993 35.311,115.509 l -83.158,-49.079 -0.37,-0.171 -120.027,-55.727 c -8.083,-5.744 -24.91,-4.547 -50.95,-1.928 -9.109,0.916 -20.448,2.054 -23.655,1.456 l -1.251,-0.234 -2.856,0.348 c -18.18,-1.586 -76.532,19.007 -77.104,19.228 z m 47.397,-531.142 100.523,259.667 -19.834,106.244 -187.44,205.907 162.918,-63.067 c 15.169,-5.869 61.5,-19.625 69.635,-18.194 l 1.22,0.218 2.793,-0.321 c 5.397,0.63 13.978,-0.169 26.91,-1.472 11.271,-1.133 34.599,-3.479 39.666,-1.074 l 0.684,0.623 121.657,56.485 83.523,49.293 c 5.897,3.487 13.121,2.914 18.397,-1.449 5.276,-4.361 7.195,-11.345 4.886,-17.788 C 24.301,256.089 12.054,216.075 -4.73,158.199 -19.031,108.881 -18.459,57.27 -3.076,8.947 -1.029,2.515 0,0.274 0.33,-0.363 l 176.637,-194.042 -259.666,100.521 -106.244,-19.834 z"
             style="fill:#c0c1c0;fill-opacity:1;fill-rule:nonzero;stroke:none"
             id="path66" />
        </g>
        <g
           id="g68"
           transform="translate(-3284.1252,3819.7329)">
          <path
             d="m 0,0 1645.947,-1808.128 209.502,-1122.205 -0.847,-2.188 -881.859,-2278.011 1808.129,1645.947 2.306,0.43 1119.901,209.072 2.188,-0.847 2278.008,-881.859 -1645.946,1808.129 -0.431,2.306 -194.748,1043.181 c -9.369,50.19 -4.578,101.891 13.856,149.513 L 5210.533,972.745 3483.378,-599.49 c -52.975,-48.224 -118.196,-80.661 -188.614,-93.807 l -1014.566,-189.406 -2.187,0.846 z m 932.066,-5269.885 12.641,32.657 893.653,2308.478 -207.78,1112.979 L -59.353,40.678 2281.78,-865.615 3291.735,-677.069 c 67.399,12.583 129.827,43.63 180.529,89.786 l 1778.945,1619.379 -879.807,-2272.715 c -17.327,-44.759 -21.831,-93.351 -13.024,-140.523 l 194.318,-1040.874 1689.932,-1856.449 -32.656,12.64 -2308.476,893.653 -1112.98,-207.78 z"
             style="fill:#1b506a;fill-opacity:1;fill-rule:nonzero;stroke:none"
             id="path70" />
        </g>
        <g
           id="g72"
           transform="translate(-3512.5022,3925.8279)">
          <path
             d="m 0,0 1769.378,-1943.722 225.213,-1206.361 -0.91,-2.352 -947.991,-2448.841 1943.723,1769.378 2.48,0.462 1203.883,224.751 2.351,-0.91 2448.841,-947.991 -1769.379,1943.722 -0.463,2.48 -209.352,1121.41 c -10.072,53.954 -4.921,109.533 14.895,160.725 L 5601.277,1045.692 3744.601,-644.447 c -56.948,-51.84 -127.059,-86.709 -202.758,-100.841 l -1090.65,-203.61 -2.351,0.91 z m 1001.963,-5665.08 13.589,35.105 960.669,2481.594 -223.362,1196.443 L -63.804,43.729 2452.894,-930.528 3538.586,-727.844 c 72.453,13.527 139.564,46.903 194.068,96.521 l 1912.35,1740.818 -945.785,-2443.149 c -18.626,-48.117 -23.468,-100.352 -14.001,-151.062 l 208.89,-1118.93 1816.663,-1995.667 -35.105,13.588 -2481.592,960.67 -1196.443,-223.362 z"
             style="fill:#1b506a;fill-opacity:1;fill-rule:nonzero;stroke:none"
             id="path74" />
        </g>
        <g
           id="g76"
           transform="translate(45.1947,1345.6449)">
          <path
             d="m 0,0 -331.199,-61.83 -511.275,-465.417 248.751,642.574 0.848,2.187 -61.831,331.196 -465.415,511.276 300.419,-116.298 c 4.39,-1.698 48.567,-18.12 93.241,-34.072 72.812,-26 89.451,-30.377 95.019,-30.752 l 7.177,-2.185 1.231,0.231 c 6.689,-0.79 40.926,-11.362 71.215,-20.716 98.061,-30.284 113.391,-33.523 119.732,-30.073 l 249.981,66.373 c 55.529,14.744 107.954,42.284 151.608,79.643 l 383.273,328.004 c -32.693,-85.975 -152.807,-413.099 -204.71,-556.785 -17.024,-47.122 -20.824,-98 -10.992,-147.137 8.596,-42.959 21.027,-104.658 31.423,-154.618 18.347,-88.161 19.677,-89.623 21.885,-92.048 L 644.758,-249.597 2.188,-0.846 Z m 203.546,259.613 c -1.841,5.872 -10.445,40.745 -50.288,239.846 -9.24,46.181 -5.667,94 10.332,138.288 52.226,144.579 173.523,474.909 205.242,558.178 2.659,6.973 0.344,14.543 -5.755,18.838 -6.11,4.301 -14.022,3.925 -19.697,-0.93 L -41.232,884.679 c -41.782,-35.758 -91.962,-62.118 -145.111,-76.228 L -437.74,741.7 l -0.675,-0.181 c -11.088,0.357 -69.543,18.407 -108.535,30.448 -52.955,16.353 -68.865,20.975 -75.527,21.423 l -7.353,2.238 -1.182,-0.221 c -16.093,2.127 -163.714,56.317 -182.732,63.676 l -365.731,141.583 509.403,-559.597 60.108,-321.972 -273.186,-705.695 559.593,509.401 321.974,60.109 705.692,-273.188 z"
             style="fill:#e41a50;fill-opacity:1;fill-rule:nonzero;stroke:none"
             id="path78" />
        </g>
        <g
           id="g80"
           transform="translate(-2079.1077,2993.8594)">
          <path
             d="m 0,0 1002.019,-1100.753 128.955,-690.748 -0.846,-2.188 -536.527,-1385.952 1100.754,1002.019 690.746,128.955 2.188,-0.846 1385.953,-536.528 -995.282,1093.352 c -2.186,2.399 -2.228,2.444 -16.356,74.877 -7.695,39.453 -18.534,95.679 -32.218,167.116 -25.191,131.519 -54.739,287.036 -70.109,368.032 -9.467,49.884 -4.928,101.335 13.126,148.796 96.713,254.244 430.955,1127.952 499.248,1306.459 l -989.883,-888.332 -5.513,6.144 5.513,-6.144 c -50.574,-45.385 -112.474,-76.673 -179.009,-90.479 l -589.737,-122.381 c -3.932,-1.445 -9.935,0.588 -27.365,6.487 -12.575,4.254 -30.28,10.485 -54.126,19.045 -43.89,15.757 -99.583,36.179 -153.443,55.929 -68.334,25.057 -138.904,50.932 -150.185,54.215 l -0.573,-0.107 -14.742,5.375 c -5.161,1.195 -18.301,5.854 -60.257,21.449 -30.953,11.506 -73.73,27.609 -127.142,47.865 -91.641,34.752 -184.369,70.271 -186.746,71.192 z m 552.922,-3238.995 560.964,1449.078 -127.234,681.522 L -59.353,40.678 644.403,-231.757 c 15.657,-6.065 344.659,-131.913 370.742,-139.571 l 0.561,0.105 15.129,-5.515 c 8.478,-2.093 36.567,-12.233 152.943,-54.907 89.211,-32.711 210.644,-77.239 225.922,-80.785 l 589.706,122.373 c 63.683,13.216 122.929,43.162 171.336,86.603 l 1040.751,933.98 -12.212,-31.918 c -4.029,-10.528 -404.094,-1056.124 -511.45,-1338.344 -16.967,-44.607 -21.233,-92.967 -12.336,-139.85 67.979,-358.212 110.954,-581.759 116.002,-603.45 l 1041.096,-1143.683 -1449.075,560.964 -681.522,-127.234 z"
             style="fill:#1b506a;fill-opacity:1;fill-rule:nonzero;stroke:none"
             id="path82" />
        </g>
        <g
           id="g84"
           transform="translate(-948.6834,2874.9912)">
          <path
             d="m 0,0 c -0.195,-0.029 -0.393,-0.066 -0.592,-0.111 z m -2134.606,807.096 1538.625,-1690.232 196.077,-1050.296 -0.846,-2.188 -824.303,-2129.335 1690.234,1538.626 1050.295,196.078 2.189,-0.846 2129.333,-824.302 -1536.186,1687.551 c -1.603,1.765 -1.603,1.765 -3.613,12.355 -1.03,5.436 -2.541,13.432 -4.47,23.687 -3.861,20.499 -9.406,50.03 -16.191,86.204 -13.567,72.341 -32.092,171.247 -52,277.598 -39.817,212.702 -85.17,455.185 -107.482,574.49 -9.377,50.152 -4.617,101.816 13.769,149.405 131.214,339.651 702.829,1818.135 795.264,2057.215 L 1132.046,255.141 l -5.552,6.108 5.552,-6.108 c -52.711,-47.91 -117.567,-80.226 -187.562,-93.454 L 3.685,-16.103 c -2.671,-0.806 -5.257,0.14 -7.456,0.948 -1.425,0.524 -3.524,1.307 -6.248,2.334 -5.399,2.034 -13.273,5.028 -23.211,8.821 -19.853,7.577 -47.959,18.353 -81.057,31.062 -66.186,25.417 -152.34,58.576 -232.387,89.385 -109.592,42.18 -213.462,82.157 -228.885,87.938 l -0.085,-0.016 -21.746,8.365 0.05,0.129 c -3.335,1.048 -9.851,3.548 -24.342,9.109 -15.372,5.898 -37.287,14.334 -63.564,24.462 -52.548,20.252 -122.542,47.273 -192.536,74.308 -138.17,53.368 -279.705,108.095 -280.354,108.347 z m 868.877,-4931.404 848.737,2192.459 -194.355,1041.072 -1582.612,1738.552 1041.781,-403.292 c 5.312,-2.056 522.442,-202.008 558.451,-215.519 l 0.084,0.015 21.745,-8.364 -0.04,-0.103 c 2.873,-0.908 8.137,-2.92 19.06,-7.1 12.115,-4.634 29.513,-11.31 50.73,-19.464 42.425,-16.302 100.126,-38.51 161.403,-62.095 C -196.505,76.338 -18.418,7.796 1.872,0.355 l 939.546,177.553 c 66.994,12.661 129.073,43.592 179.524,89.448 l 1655.733,1504.949 -12.595,-32.576 c -6.64,-17.176 -665.703,-1721.815 -807.856,-2089.787 -17.28,-44.728 -21.755,-93.286 -12.94,-140.422 41.049,-219.505 172.851,-924.178 181.279,-967.95 l 1581.788,-1737.648 -32.656,12.641 -2159.802,836.098 -1041.069,-194.357 z"
             style="fill:#1b506a;fill-opacity:1;fill-rule:nonzero;stroke:none"
             id="path86" />
        </g>
      </g>
    </g>
  </g>
</svg>
